<svg viewBox="0 0 900 600" xmlns="http://www.w3.org/2000/svg">
  <style>
    .title { font-family: Georgia, serif; font-size: 24px; font-weight: bold; fill: #1a1a1a; }
    .subtitle { font-family: system-ui, sans-serif; font-size: 15px; fill: #666; }
    .section-title { font-family: system-ui, sans-serif; font-size: 14px; font-weight: bold; fill: #1a1a1a; }
    .label { font-family: system-ui, sans-serif; font-size: 13px; fill: #333; }
    .small-label { font-family: system-ui, sans-serif; font-size: 11px; fill: #666; }
    .barrier-label { font-family: system-ui, sans-serif; font-size: 12px; font-weight: bold; fill: #fff; }
    .outcome { font-family: system-ui, sans-serif; font-size: 12px; fill: #2c3e50; }
    .positive { font-family: system-ui, sans-serif; font-size: 12px; font-weight: bold; fill: #27ae60; }
    .negative { font-family: system-ui, sans-serif; font-size: 12px; font-weight: bold; fill: #c0392b; }
    .insight { font-family: system-ui, sans-serif; font-size: 13px; font-style: italic; fill: #2c3e50; }
  </style>
  
  <!-- White background -->
  <rect width="900" height="600" fill="#ffffff"/>
  
  <!-- Title -->
  <text x="450" y="35" text-anchor="middle" class="title">The Human Cost - Who Gets Left Behind</text>
  <text x="450" y="55" text-anchor="middle" class="subtitle">Agent access amplifies existing advantages and disadvantages</text>
  
  <!-- Left side: Those with full access -->
  <rect x="40" y="80" width="250" height="240" rx="8" fill="#e8f6e8" stroke="#27ae60" stroke-width="2"/>
  <text x="165" y="105" text-anchor="middle" class="section-title">Full Agent Access</text>
  
  <!-- Access requirements (checkmarks) -->
  <text x="60" y="130" class="small-label">✓ Modern device</text>
  <text x="60" y="148" class="small-label">✓ Reliable internet</text>
  <text x="60" y="166" class="small-label">✓ Can afford subscription</text>
  <text x="60" y="184" class="small-label">✓ English proficiency</text>
  <text x="60" y="202" class="small-label">✓ Technical literacy</text>
  <text x="60" y="220" class="small-label">✓ Time to learn</text>
  
  <!-- Outcomes -->
  <text x="60" y="250" class="positive">Outcomes:</text>
  <text x="60" y="270" class="outcome">• Tasks completed faster</text>
  <text x="60" y="288" class="outcome">• Better deals found</text>
  <text x="60" y="306" class="outcome">• Complex processes navigated</text>
  
  <!-- Right side: Those without -->
  <rect x="610" y="80" width="250" height="240" rx="8" fill="#fde8e8" stroke="#c0392b" stroke-width="2"/>
  <text x="735" y="105" text-anchor="middle" class="section-title">Limited or No Access</text>
  
  <!-- Missing requirements (X marks) -->
  <text x="630" y="130" class="small-label">✗ Older/basic device</text>
  <text x="630" y="148" class="small-label">✗ Poor connectivity</text>
  <text x="630" y="166" class="small-label">✗ Cannot afford £20/month</text>
  <text x="630" y="184" class="small-label">✗ Non-English speaker</text>
  <text x="630" y="202" class="small-label">✗ Limited tech skills</text>
  <text x="630" y="220" class="small-label">✗ No time to learn</text>
  
  <!-- Outcomes -->
  <text x="630" y="250" class="negative">Outcomes:</text>
  <text x="630" y="270" class="outcome">• Manual processes only</text>
  <text x="630" y="288" class="outcome">• Worse options, higher prices</text>
  <text x="630" y="306" class="outcome">• Excluded from digital services</text>
  
  <!-- Center: The gap with barriers -->
  <text x="450" y="100" text-anchor="middle" class="section-title">The Barriers</text>
  
  <!-- Barrier blocks stacked vertically -->
  <rect x="330" y="115" width="240" height="28" rx="4" fill="#9b59b6"/>
  <text x="450" y="134" text-anchor="middle" class="barrier-label">Economic - subscription costs</text>
  
  <rect x="330" y="148" width="240" height="28" rx="4" fill="#3498db"/>
  <text x="450" y="167" text-anchor="middle" class="barrier-label">Language - English dominance</text>
  
  <rect x="330" y="181" width="240" height="28" rx="4" fill="#e67e22"/>
  <text x="450" y="200" text-anchor="middle" class="barrier-label">Age - technology comfort</text>
  
  <rect x="330" y="214" width="240" height="28" rx="4" fill="#1abc9c"/>
  <text x="450" y="233" text-anchor="middle" class="barrier-label">Education - digital literacy</text>
  
  <rect x="330" y="247" width="240" height="28" rx="4" fill="#e74c3c"/>
  <text x="450" y="266" text-anchor="middle" class="barrier-label">Geography - infrastructure</text>
  
  <rect x="330" y="280" width="240" height="28" rx="4" fill="#34495e"/>
  <text x="450" y="299" text-anchor="middle" class="barrier-label">Disability - interface access</text>
  
  <!-- Arrows showing widening gap -->
  <path d="M290 180 L310 160" stroke="#27ae60" stroke-width="2" fill="none" marker-end="url(#greenArrow)"/>
  <path d="M610 180 L590 160" stroke="#c0392b" stroke-width="2" fill="none" marker-end="url(#redArrow)"/>
  
  <!-- The compounding effect section -->
  <text x="450" y="370" text-anchor="middle" class="section-title">The Compounding Effect</text>

  <!-- Timeline showing gap widening -->
  <line x1="100" y1="465" x2="800" y2="465" stroke="#ccc" stroke-width="2"/>

  <!-- Time labels -->
  <text x="100" y="485" text-anchor="middle" class="small-label">Today</text>
  <text x="300" y="485" text-anchor="middle" class="small-label">1 year</text>
  <text x="500" y="485" text-anchor="middle" class="small-label">3 years</text>
  <text x="700" y="485" text-anchor="middle" class="small-label">5 years</text>

  <!-- Upper line (those with access) - curves upward -->
  <path d="M100 450 Q 250 440, 300 425 Q 400 405, 500 385 Q 600 360, 700 335"
        stroke="#27ae60" stroke-width="3" fill="none"/>
  <circle cx="100" cy="450" r="5" fill="#27ae60"/>
  <circle cx="700" cy="335" r="5" fill="#27ae60"/>
  <text x="720" y="340" class="positive">Advantage grows</text>

  <!-- Lower line (those without) - curves downward -->
  <path d="M100 480 Q 250 490, 300 505 Q 400 520, 500 527 Q 600 532, 700 535"
        stroke="#c0392b" stroke-width="3" fill="none"/>
  <circle cx="100" cy="480" r="5" fill="#c0392b"/>
  <circle cx="700" cy="535" r="5" fill="#c0392b"/>
  <text x="720" y="540" class="negative">Falls further behind</text>

  <!-- Gap indicator -->
  <line x1="700" y1="335" x2="700" y2="535" stroke="#666" stroke-width="1" stroke-dasharray="4,3"/>
  <text x="760" y="430" text-anchor="middle" class="label">Gap</text>
  <text x="760" y="448" text-anchor="middle" class="label">widens</text>
  
  <!-- Bottom insight -->
  <rect x="100" y="545" width="700" height="45" rx="8" fill="#f8f8f8" stroke="#999" stroke-width="1.5"/>
  <text x="450" y="565" text-anchor="middle" class="insight">Technology transitions benefit the privileged first.</text>
  <text x="450" y="582" text-anchor="middle" class="insight">The question is how quickly access democratises - and how much inequality accumulates during the transition.</text>
  
  <!-- Arrow markers -->
  <defs>
    <marker id="greenArrow" markerWidth="10" markerHeight="10" refX="9" refY="3" orient="auto">
      <path d="M0,0 L0,6 L9,3 z" fill="#27ae60"/>
    </marker>
    <marker id="redArrow" markerWidth="10" markerHeight="10" refX="9" refY="3" orient="auto">
      <path d="M0,0 L0,6 L9,3 z" fill="#c0392b"/>
    </marker>
  </defs>
</svg>
